<svg width="600" height="278" viewBox="0 0 600 278" fill="none" xmlns="http://www.w3.org/2000/svg">
<path d="M304.821 9.42004H304.861L304.851 48.88L313.391 48.78H325.101C333.811 48.78 340.801 51.2501 345.741 55.5201C340.801 59.7701 333.801 62.23 325.101 62.23H313.391L304.851 62.2V101.59H304.801V111.1H325.081C348.371 111.1 362.641 96.36 362.641 75.26C362.641 67.78 360.851 61.09 357.491 55.58C360.851 50.07 362.651 43.3801 362.651 35.9001C362.651 14.8101 348.391 0.0500391 325.111 0.0400391H304.831V9.42004H304.821ZM354.101 75.25C354.101 90.74 343.371 101.59 325.081 101.58H313.371V71.73H325.081C336.021 71.73 344.971 68.48 351.381 62.85C353.161 66.47 354.091 70.65 354.091 75.25H354.101ZM325.101 9.42004C343.391 9.42004 354.111 20.28 354.111 35.89C354.111 40.48 353.171 44.6601 351.361 48.2701C344.951 42.64 336.011 39.39 325.091 39.39H313.381V9.41003H325.091L325.101 9.42004Z" fill="#1D1D1B"/>
<path d="M295.19 9.39001H295.15V48.85L286.61 48.75H274.9C266.19 48.75 259.19 51.21 254.26 55.48C259.2 59.73 266.19 62.19 274.9 62.19H286.61L295.15 62.16V101.55H295.19V111.06H274.91C251.62 111.06 237.36 96.31 237.36 75.21C237.36 67.73 239.16 61.04 242.51 55.53C239.15 50.02 237.36 43.33 237.36 35.85C237.36 14.76 251.63 0 274.91 0H295.19V9.39001ZM245.89 75.21C245.89 90.7 256.62 101.55 274.9 101.55H286.61V71.7H274.9C263.96 71.7 255.01 68.44 248.6 62.81C246.82 66.43 245.89 70.61 245.89 75.21ZM274.91 9.39001C256.62 9.39001 245.9 20.24 245.9 35.85C245.9 40.44 246.84 44.62 248.64 48.23C255.05 42.6 263.99 39.36 274.91 39.36H286.62V9.39001H274.91Z" fill="#1D1D1B"/>
<path d="M36.61 209.07H16.11L11.26 221.82H0L21.43 167.06H26.28C29.67 167.06 31.96 168.62 33.16 171.75L52.64 221.82H41.38L36.61 209.07ZM19.01 200H33.72L26.45 180.29H26.37L19.02 200H19.01Z" fill="#1D1D1B"/>
<path d="M59.4099 219.83C58.0299 218.5 57.3398 216.74 57.3398 214.55V167.07H68.1399V212.44H97.8698V221.83H64.9398C62.6398 221.83 60.8098 221.17 59.4298 219.84L59.4099 219.83Z" fill="#1D1D1B"/>
<path d="M105.45 219.79C104.04 218.43 103.34 216.66 103.34 214.47V167.06H145.11V176.45H114.13V189.12H142.76V198.51H114.13V212.43H145.11V221.82H110.92C108.68 221.82 106.85 221.14 105.44 219.79H105.45Z" fill="#1D1D1B"/>
<path d="M166.55 193.9L148.24 167.07H160.52L172.72 185.06L184.92 167.07H197.12L178.81 193.9L197.9 221.83H185.62L172.71 202.74L159.72 221.83H147.44L166.53 193.9H166.55Z" fill="#1D1D1B"/>
<path d="M234.68 209.07H214.18L209.33 221.82H198.07L219.5 167.06H224.35C227.74 167.06 230.03 168.62 231.23 171.75L250.71 221.82H239.45L234.68 209.07ZM217.08 200H231.79L224.52 180.29H224.44L217.09 200H217.08Z" fill="#1D1D1B"/>
<path d="M280.52 219.79C279.11 218.43 278.41 216.66 278.41 214.47V167.06H305.63C310.58 167.06 314.56 168.23 317.56 170.58C320.56 172.93 322.06 176.08 322.06 180.05V183.96C322.06 185.68 321.63 187.32 320.77 188.89C319.91 190.45 318.7 191.73 317.13 192.72V192.8C319.63 193.69 321.65 195.12 323.19 197.1C324.73 199.08 325.5 201.3 325.5 203.75V207.82C325.5 212.1 323.95 215.5 320.85 218.03C317.75 220.56 313.56 221.82 308.29 221.82H286C283.76 221.82 281.93 221.14 280.52 219.79ZM305.63 189.75C307.3 189.75 308.65 189.22 309.7 188.15C310.74 187.08 311.26 185.66 311.26 183.89V181.23C311.26 179.77 310.71 178.61 309.62 177.75C308.53 176.89 307.06 176.46 305.24 176.46H289.2V189.76H305.63V189.75ZM307.51 212.44C309.8 212.44 311.58 211.98 312.83 211.07C314.08 210.16 314.71 208.87 314.71 207.2V203.76C314.71 202.25 314.16 201.02 313.07 200.08C311.98 199.14 310.51 198.67 308.69 198.67H289.21V212.44H307.52H307.51Z" fill="#1D1D1B"/>
<path d="M340.79 219.83C337.63 218.08 335.18 215.63 333.44 212.48C331.69 209.33 330.82 205.66 330.82 201.49V187.41C330.82 183.24 331.69 179.58 333.44 176.42C335.19 173.27 337.64 170.81 340.79 169.07C343.94 167.32 347.58 166.45 351.7 166.45H359.99C364.11 166.45 367.75 167.32 370.9 169.07C374.05 170.82 376.51 173.27 378.25 176.42C380 179.58 380.87 183.24 380.87 187.41V201.49C380.87 205.66 380 209.33 378.25 212.48C376.5 215.64 374.05 218.09 370.9 219.83C367.74 221.58 364.11 222.45 359.99 222.45H351.7C347.58 222.45 343.94 221.58 340.79 219.83ZM360 212.91C363.02 212.91 365.46 211.81 367.31 209.62C369.16 207.43 370.09 204.56 370.09 201.02V187.88C370.09 184.33 369.16 181.47 367.31 179.27C365.46 177.08 363.02 175.98 360 175.98H351.71C348.68 175.98 346.25 177.08 344.4 179.27C342.55 181.46 341.62 184.33 341.62 187.88V201.02C341.62 204.57 342.55 207.43 344.4 209.62C346.25 211.81 348.69 212.91 351.71 212.91H360Z" fill="#1D1D1B"/>
<path d="M391.13 219.79C389.72 218.43 389.02 216.66 389.02 214.47V167.06H415.15C419.32 167.06 422.98 167.84 426.14 169.41C429.29 170.97 431.75 173.19 433.49 176.06C435.24 178.93 436.109 182.24 436.109 185.99V201.32C436.109 208.05 434.36 213.15 430.87 216.61C427.38 220.08 422.24 221.81 415.46 221.81H396.609C394.369 221.81 392.54 221.13 391.13 219.78V219.79ZM415.15 212.28C418.49 212.28 421.02 211.32 422.74 209.39C424.46 207.46 425.32 204.62 425.32 200.86V186.47C425.32 183.5 424.35 181.11 422.43 179.31C420.5 177.51 417.97 176.61 414.84 176.61H399.82V212.28H415.15Z" fill="#1D1D1B"/>
<path d="M443.94 167.07H453.56L479.84 204.31V167.07H490.4V221.83H480.78L454.5 184.59V221.83H443.94V167.07Z" fill="#1D1D1B"/>
<path d="M532.18 209.07H511.68L506.83 221.82H495.57L517 167.06H521.85C525.24 167.06 527.53 168.62 528.73 171.75L548.21 221.82H536.95L532.18 209.07ZM514.58 200H529.29L522.01 180.29H521.93L514.58 200Z" fill="#1D1D1B"/>
<path d="M553.38 167.07H582.48C587.22 167.07 591.05 168.35 593.94 170.9C596.83 173.46 598.28 176.82 598.28 180.99V186.47C598.28 189.18 597.51 191.54 595.97 193.55C594.43 195.56 592.2 197.08 589.28 198.13V198.29C590.95 199.39 592.21 200.64 593.07 202.04C593.93 203.45 594.78 205.4 595.61 207.91L599.99 221.83H588.8L584.65 208.84C583.97 206.6 583.03 204.93 581.83 203.83C580.63 202.73 579.14 202.19 577.37 202.19H564.15V221.83H553.35V167.07H553.38ZM580.44 192.88C582.63 192.88 584.35 192.29 585.6 191.12C586.85 189.95 587.48 188.42 587.48 186.54V181.46C587.48 179.95 587.01 178.74 586.07 177.82C585.13 176.91 583.88 176.45 582.32 176.45H564.17V192.88H580.44Z" fill="#1D1D1B"/>
<path d="M151.73 250.54H162.7C163.99 250.54 165.17 250.76 166.25 251.19C167.33 251.62 168.25 252.23 169.04 253C169.82 253.77 170.43 254.69 170.87 255.75C171.3 256.81 171.52 257.97 171.52 259.24C171.52 260.51 171.3 261.72 170.87 262.8C170.43 263.88 169.83 264.81 169.05 265.59C168.27 266.37 167.35 266.97 166.28 267.41C165.21 267.85 164.04 268.06 162.76 268.06H154.83V277.43H151.74V250.53L151.73 250.54ZM162.63 265.26C163.46 265.26 164.23 265.11 164.94 264.79C165.65 264.48 166.26 264.06 166.77 263.52C167.28 262.99 167.69 262.35 167.98 261.62C168.27 260.89 168.42 260.1 168.42 259.26C168.42 258.42 168.27 257.68 167.97 256.97C167.67 256.26 167.26 255.63 166.74 255.09C166.22 254.55 165.6 254.12 164.89 253.81C164.18 253.5 163.41 253.34 162.57 253.34H154.81V265.25H162.63V265.26Z" fill="#1D1D1B"/>
<path d="M176.15 250.54H179.24V262.58H195.36V250.54H198.48V277.44H195.36V265.4H179.24V277.44H176.15V250.54Z" fill="#1D1D1B"/>
<path d="M218.281 277.95C216.301 277.95 214.441 277.59 212.691 276.86C210.941 276.14 209.421 275.14 208.131 273.87C206.841 272.6 205.821 271.12 205.061 269.42C204.311 267.72 203.931 265.9 203.931 263.96C203.931 262.02 204.311 260.16 205.061 258.46C205.811 256.76 206.831 255.28 208.131 254.01C209.421 252.74 210.941 251.75 212.691 251.02C214.441 250.3 216.301 249.93 218.281 249.93C220.261 249.93 222.121 250.29 223.861 251.02C225.601 251.74 227.121 252.74 228.421 254.01C229.721 255.28 230.741 256.76 231.501 258.46C232.251 260.16 232.631 261.99 232.631 263.96C232.631 265.93 232.251 267.72 231.501 269.42C230.751 271.12 229.721 272.6 228.421 273.87C227.121 275.14 225.601 276.13 223.861 276.86C222.121 277.58 220.261 277.95 218.281 277.95ZM218.271 275.09C219.831 275.09 221.291 274.81 222.651 274.24C224.021 273.67 225.211 272.89 226.231 271.89C227.251 270.89 228.061 269.72 228.651 268.36C229.241 267.01 229.531 265.54 229.531 263.97C229.531 262.4 229.241 260.91 228.651 259.55C228.061 258.19 227.261 257.01 226.231 256.01C225.211 255.01 224.011 254.23 222.651 253.66C221.281 253.09 219.821 252.81 218.271 252.81C216.721 252.81 215.251 253.09 213.891 253.66C212.521 254.23 211.331 255.01 210.321 256.02C209.301 257.02 208.501 258.2 207.921 259.56C207.331 260.91 207.041 262.38 207.041 263.97C207.041 265.56 207.331 267.01 207.921 268.36C208.511 269.71 209.311 270.89 210.341 271.89C211.361 272.89 212.561 273.67 213.921 274.24C215.291 274.81 216.741 275.09 218.291 275.09H218.271Z" fill="#1D1D1B"/>
<path d="M242.09 253.35H233.45V250.54H253.86V253.35H245.18V277.44H242.09V253.35Z" fill="#1D1D1B"/>
<path d="M269.031 277.95C267.051 277.95 265.191 277.59 263.441 276.86C261.691 276.14 260.171 275.14 258.881 273.87C257.591 272.6 256.571 271.12 255.811 269.42C255.061 267.72 254.681 265.9 254.681 263.96C254.681 262.02 255.061 260.16 255.811 258.46C256.561 256.76 257.581 255.28 258.881 254.01C260.171 252.74 261.691 251.75 263.441 251.02C265.191 250.3 267.051 249.93 269.031 249.93C271.011 249.93 272.871 250.29 274.611 251.02C276.351 251.74 277.871 252.74 279.171 254.01C280.471 255.28 281.491 256.76 282.251 258.46C283.011 260.16 283.381 261.99 283.381 263.96C283.381 265.93 283.001 267.72 282.251 269.42C281.501 271.12 280.471 272.6 279.171 273.87C277.871 275.14 276.351 276.13 274.611 276.86C272.871 277.59 271.011 277.95 269.031 277.95ZM269.021 275.09C270.581 275.09 272.041 274.81 273.401 274.24C274.771 273.67 275.961 272.89 276.981 271.89C278.001 270.89 278.811 269.72 279.401 268.36C279.991 267.01 280.281 265.54 280.281 263.97C280.281 262.4 279.991 260.91 279.401 259.55C278.811 258.19 278.011 257.01 276.981 256.01C275.961 255.01 274.761 254.23 273.401 253.66C272.031 253.09 270.571 252.81 269.021 252.81C267.471 252.81 266.001 253.09 264.641 253.66C263.271 254.23 262.081 255.01 261.071 256.02C260.051 257.02 259.251 258.2 258.671 259.56C258.081 260.91 257.791 262.38 257.791 263.97C257.791 265.56 258.081 267.01 258.671 268.36C259.261 269.71 260.061 270.89 261.091 271.89C262.121 272.89 263.311 273.67 264.671 274.24C266.041 274.81 267.491 275.09 269.041 275.09H269.021Z" fill="#1D1D1B"/>
<path d="M300.831 277.95C298.871 277.95 297.031 277.59 295.311 276.86C293.601 276.14 292.111 275.14 290.841 273.87C289.581 272.6 288.581 271.12 287.851 269.42C287.121 267.72 286.761 265.9 286.761 263.96C286.761 262.02 287.121 260.16 287.851 258.46C288.581 256.76 289.571 255.28 290.841 254.01C292.101 252.74 293.591 251.75 295.311 251.02C297.021 250.3 298.861 249.93 300.831 249.93C302.271 249.93 303.671 250.13 305.031 250.53C306.391 250.93 307.651 251.52 308.801 252.28C309.951 253.04 310.941 253.98 311.781 255.1C312.621 256.21 313.221 257.48 313.591 258.89H310.431C310.051 257.92 309.541 257.06 308.911 256.31C308.281 255.56 307.551 254.92 306.711 254.4C305.871 253.88 304.961 253.48 303.961 253.21C302.961 252.94 301.901 252.8 300.781 252.8C299.261 252.8 297.841 253.08 296.521 253.63C295.201 254.18 294.041 254.96 293.051 255.95C292.061 256.94 291.281 258.12 290.721 259.49C290.151 260.86 289.871 262.35 289.871 263.96C289.871 265.57 290.151 267.08 290.721 268.45C291.291 269.82 292.061 270.99 293.051 271.97C294.041 272.95 295.201 273.71 296.521 274.26C297.851 274.81 299.271 275.08 300.781 275.08C302.381 275.08 303.791 274.84 305.021 274.38C306.251 273.91 307.311 273.27 308.181 272.47C309.061 271.66 309.761 270.73 310.281 269.66C310.801 268.59 311.141 267.45 311.301 266.25H300.661V263.38H314.521C314.521 265.37 314.221 267.25 313.611 269.01C313.001 270.77 312.121 272.32 310.961 273.64C309.801 274.97 308.371 276.02 306.671 276.79C304.971 277.56 303.021 277.95 300.841 277.95H300.831Z" fill="#1D1D1B"/>
<path d="M320.02 250.54H331.4C332.69 250.54 333.87 250.74 334.95 251.14C336.02 251.54 336.95 252.11 337.74 252.84C338.52 253.57 339.13 254.45 339.57 255.48C340 256.51 340.22 257.65 340.22 258.9C340.22 259.9 340.07 260.83 339.78 261.68C339.49 262.53 339.08 263.29 338.55 263.96C338.02 264.63 337.39 265.2 336.65 265.66C335.91 266.12 335.1 266.46 334.2 266.69L340.8 277.43H337.2L331.06 267.15C330.91 267.16 330.77 267.17 330.64 267.17H323.09V277.43H320V250.53L320.02 250.54ZM331.34 264.51C332.17 264.51 332.94 264.38 333.65 264.11C334.36 263.84 334.97 263.46 335.48 262.97C335.99 262.48 336.4 261.9 336.69 261.21C336.98 260.52 337.13 259.77 337.13 258.94C337.13 258.11 336.98 257.37 336.68 256.69C336.38 256.01 335.97 255.42 335.45 254.93C334.93 254.43 334.31 254.05 333.6 253.77C332.89 253.49 332.11 253.35 331.28 253.35H323.1V264.5H331.34V264.51Z" fill="#1D1D1B"/>
<path d="M362.3 271.11H348.38L345.71 277.44H342.41L353.84 250.54H356.85L368.28 277.44H364.98L362.31 271.11H362.3ZM361.17 268.46L355.45 254.89L355.35 254.49H355.33L355.21 254.89L349.49 268.46H361.16H361.17Z" fill="#1D1D1B"/>
<path d="M372.351 250.54H383.321C384.611 250.54 385.791 250.76 386.871 251.19C387.951 251.62 388.871 252.23 389.661 253C390.441 253.77 391.051 254.69 391.491 255.75C391.921 256.81 392.141 257.97 392.141 259.24C392.141 260.51 391.921 261.72 391.491 262.8C391.061 263.88 390.451 264.81 389.671 265.59C388.891 266.37 387.971 266.97 386.901 267.41C385.831 267.85 384.661 268.06 383.381 268.06H375.451V277.43H372.361V250.53L372.351 250.54ZM383.261 265.26C384.091 265.26 384.861 265.11 385.571 264.79C386.281 264.48 386.891 264.06 387.401 263.52C387.911 262.99 388.321 262.35 388.611 261.62C388.901 260.89 389.051 260.1 389.051 259.26C389.051 258.42 388.901 257.68 388.601 256.97C388.301 256.26 387.891 255.63 387.371 255.09C386.851 254.55 386.231 254.12 385.521 253.81C384.811 253.5 384.041 253.34 383.201 253.34H375.441V265.25H383.261V265.26Z" fill="#1D1D1B"/>
<path d="M396.771 250.54H399.86V262.58H415.98V250.54H419.1V277.44H415.98V265.4H399.86V277.44H396.771V250.54Z" fill="#1D1D1B"/>
<path d="M434.251 267.12L423.311 250.55H426.991L435.781 264.34H435.821L444.571 250.55H448.271L437.331 267.1V277.44H434.241V267.12H434.251Z" fill="#1D1D1B"/>
</svg>
