<svg width="421" height="77" viewBox="0 0 421 77" fill="none" xmlns="http://www.w3.org/2000/svg">
<rect width="75" height="77" rx="37.5" fill="#E44040"/>
<path d="M389.426 73.0263C387.373 73.0263 385.504 72.7593 383.82 72.2255C382.178 71.7327 380.638 71.0345 379.2 70.1311V64.0327C380.761 65.0183 382.239 65.7369 383.636 66.1887C385.073 66.6404 386.675 66.8663 388.44 66.8663C390.124 66.8663 391.623 66.4761 392.937 65.6959C394.251 64.9567 395.34 63.6425 396.202 61.7535L411.91 27.1343H420.411L402.362 64.4639C401.376 66.5172 400.206 68.1599 398.851 69.3919C397.537 70.6649 396.079 71.5889 394.477 72.1639C392.917 72.7388 391.233 73.0263 389.426 73.0263ZM393.43 60.8911L377.414 27.1343H386.223L401.376 60.8911H393.43Z" fill="#222222"/>
<path d="M309.904 27.1344H317.912L320.007 39.7008V62H311.999V38.5304L309.904 27.1344ZM332.881 26.272C335.961 26.272 338.569 26.929 340.704 28.2432C342.881 29.5573 344.524 31.4464 345.632 33.9104C346.782 36.3333 347.357 39.2696 347.357 42.7192V62H339.349V44.0128C339.349 40.3578 338.569 37.6064 337.008 35.7584C335.489 33.8693 333.251 32.9248 330.294 32.9248C328.2 32.9248 326.372 33.4381 324.812 34.4648C323.292 35.4504 322.101 36.8466 321.239 38.6536C320.417 40.4605 320.007 42.5754 320.007 44.9984L317.173 43.4584C317.543 39.8445 318.426 36.7645 319.822 34.2184C321.259 31.6722 323.087 29.7216 325.304 28.3664C327.563 26.9701 330.089 26.272 332.881 26.272ZM360.17 26.272C363.25 26.272 365.878 26.929 368.055 28.2432C370.231 29.5573 371.874 31.4464 372.983 33.9104C374.133 36.3333 374.708 39.2696 374.708 42.7192V62H366.7V44.0128C366.7 40.3578 365.919 37.6064 364.359 35.7584C362.839 33.8693 360.601 32.9248 357.644 32.9248C355.55 32.9248 353.722 33.4381 352.162 34.4648C350.642 35.4504 349.452 36.8466 348.589 38.6536C347.768 40.4605 347.357 42.5754 347.357 44.9984L344.523 43.4584C344.893 39.8445 345.776 36.7645 347.172 34.2184C348.61 31.6722 350.437 29.7216 352.655 28.3664C354.913 26.9701 357.418 26.272 360.17 26.272Z" fill="#222222"/>
<path d="M295.086 26.8881L299.09 27.6273L303.094 26.8881V72.1641H295.086V26.8881ZM299.09 22.5145C297.57 22.5145 296.318 22.1038 295.332 21.2825C294.346 20.4201 293.854 19.3113 293.854 17.9561C293.854 16.6009 294.346 15.5126 295.332 14.6913C296.318 13.8289 297.57 13.3977 299.09 13.3977C300.65 13.3977 301.903 13.8289 302.847 14.6913C303.833 15.5126 304.326 16.6009 304.326 17.9561C304.326 19.3113 303.833 20.4201 302.847 21.2825C301.903 22.1038 300.65 22.5145 299.09 22.5145Z" fill="#222222"/>
<path d="M279.124 62L277.769 49.064L279.37 44.5672L277.769 40.132L279.124 27.1344H287.378L285.53 44.5672L287.378 62H279.124ZM281.588 44.5672C280.808 48.2221 279.514 51.4253 277.707 54.1768C275.9 56.9282 273.662 59.0637 270.993 60.5832C268.364 62.1026 265.428 62.8624 262.184 62.8624C258.775 62.8624 255.757 62.1026 253.129 60.5832C250.5 59.0226 248.447 56.8666 246.969 54.1152C245.49 51.3637 244.751 48.181 244.751 44.5672C244.751 40.9122 245.49 37.7296 246.969 35.0192C248.447 32.2677 250.5 30.1322 253.129 28.6128C255.757 27.0522 258.775 26.272 262.184 26.272C265.428 26.272 268.364 27.0317 270.993 28.5512C273.662 30.0706 275.9 32.2061 277.707 34.9576C279.555 37.668 280.849 40.8712 281.588 44.5672ZM252.882 44.5672C252.882 46.908 253.354 48.9818 254.299 50.7888C255.285 52.5546 256.619 53.9509 258.303 54.9776C259.987 55.9632 261.917 56.456 264.093 56.456C266.311 56.456 268.364 55.9632 270.253 54.9776C272.142 53.9509 273.806 52.5546 275.243 50.7888C276.721 48.9818 277.892 46.908 278.754 44.5672C277.892 42.2264 276.721 40.173 275.243 38.4072C273.806 36.6002 272.142 35.204 270.253 34.2184C268.364 33.1917 266.311 32.6784 264.093 32.6784C261.917 32.6784 259.987 33.1917 258.303 34.2184C256.619 35.204 255.285 36.6002 254.299 38.4072C253.354 40.173 252.882 42.2264 252.882 44.5672Z" fill="#222222"/>
<path d="M230.701 61.9999L229.346 48.7559L231.132 44.6287L229.407 39.8855L231.995 14.5679H240.249L237.107 44.0743L238.894 61.9999H230.701ZM233.042 44.5671C232.262 48.222 230.968 51.4252 229.161 54.1767C227.354 56.9281 225.116 59.0636 222.447 60.5831C219.818 62.1025 216.882 62.8623 213.638 62.8623C210.229 62.8623 207.211 62.1025 204.583 60.5831C201.954 59.0225 199.901 56.8665 198.423 54.1151C196.944 51.3636 196.205 48.1809 196.205 44.5671C196.205 40.9121 196.944 37.7295 198.423 35.0191C199.901 32.2676 201.954 30.1321 204.583 28.6127C207.211 27.0521 210.229 26.2719 213.638 26.2719C216.882 26.2719 219.818 27.0316 222.447 28.5511C225.116 30.0705 227.354 32.206 229.161 34.9575C231.009 37.6679 232.303 40.8711 233.042 44.5671ZM204.336 44.5671C204.336 46.9079 204.809 48.9817 205.753 50.7887C206.739 52.5545 208.073 53.9508 209.757 54.9775C211.441 55.9631 213.371 56.4559 215.547 56.4559C217.765 56.4559 219.818 55.9631 221.707 54.9775C223.597 53.9508 225.26 52.5545 226.697 50.7887C228.175 48.9817 229.346 46.9079 230.208 44.5671C229.346 42.2263 228.175 40.1729 226.697 38.4071C225.26 36.6001 223.597 35.2039 221.707 34.2183C219.818 33.1916 217.765 32.6783 215.547 32.6783C213.371 32.6783 211.441 33.1916 209.757 34.2183C208.073 35.2039 206.739 36.6001 205.753 38.4071C204.809 40.1729 204.336 42.2263 204.336 44.5671Z" fill="#222222"/>
<path d="M182.092 62L180.736 49.064L182.338 44.5672L180.736 40.132L182.092 27.1344H190.346L188.498 44.5672L190.346 62H182.092ZM184.556 44.5672C183.775 48.2221 182.482 51.4253 180.675 54.1768C178.868 56.9282 176.63 59.0637 173.96 60.5832C171.332 62.1026 168.396 62.8624 165.152 62.8624C161.743 62.8624 158.725 62.1026 156.096 60.5832C153.468 59.0226 151.415 56.8666 149.936 54.1152C148.458 51.3637 147.719 48.181 147.719 44.5672C147.719 40.9122 148.458 37.7296 149.936 35.0192C151.415 32.2677 153.468 30.1322 156.096 28.6128C158.725 27.0522 161.743 26.272 165.152 26.272C168.396 26.272 171.332 27.0317 173.96 28.5512C176.63 30.0706 178.868 32.2061 180.675 34.9576C182.523 37.668 183.816 40.8712 184.556 44.5672ZM155.85 44.5672C155.85 46.908 156.322 48.9818 157.267 50.7888C158.252 52.5546 159.587 53.9509 161.271 54.9776C162.954 55.9632 164.885 56.456 167.061 56.456C169.279 56.456 171.332 55.9632 173.221 54.9776C175.11 53.9509 176.773 52.5546 178.211 50.7888C179.689 48.9818 180.86 46.908 181.722 44.5672C180.86 42.2264 179.689 40.173 178.211 38.4072C176.773 36.6002 175.11 35.204 173.221 34.2184C171.332 33.1917 169.279 32.6784 167.061 32.6784C164.885 32.6784 162.954 33.1917 161.271 34.2184C159.587 35.204 158.252 36.6002 157.267 38.4072C156.322 40.173 155.85 42.2264 155.85 44.5672Z" fill="#222222"/>
<path d="M133.225 53.4376V47.2776L133.533 46.1688V39.4544L133.225 38.2224V27.1344H141.233V52.6984C141.233 57.1746 140.289 60.9117 138.4 63.9096C136.511 66.9485 133.924 69.2277 130.638 70.7472C127.353 72.2666 123.575 73.0264 119.304 73.0264C116.183 73.0264 113.308 72.6157 110.68 71.7944C108.052 70.973 105.505 69.7205 103.041 68.0368V61.384C105.546 63.3552 108.134 64.7309 110.803 65.5112C113.472 66.3325 116.142 66.7432 118.811 66.7432C123.493 66.7432 127.065 65.5933 129.529 63.2936C131.993 60.9938 133.225 57.7085 133.225 53.4376ZM116.47 59.2896C113.267 59.2896 110.392 58.612 107.846 57.2568C106.496 56.5165 105 57 101 58C104.5 55 102.504 52.6241 101.809 51.4664C100.331 49.0024 99.5918 46.1072 99.5918 42.7808C99.5918 39.4544 100.331 36.5592 101.809 34.0952C103.288 31.6312 105.3 29.7216 107.846 28.3664C110.392 26.9701 113.267 26.272 116.47 26.272C118.852 26.272 121.049 26.6416 123.061 27.3808C125.115 28.12 126.942 29.1056 128.544 30.3376C130.186 31.5285 131.562 32.8632 132.671 34.3416C133.821 35.7789 134.704 37.2573 135.32 38.7768C135.936 40.2552 136.244 41.6104 136.244 42.8424C136.244 44.444 135.772 46.2098 134.827 48.14C133.882 50.029 132.527 51.8154 130.761 53.4992C129.037 55.1829 126.963 56.5792 124.54 57.688C122.117 58.7557 119.427 59.2896 116.47 59.2896ZM118.934 53.376C121.85 53.376 124.519 52.5341 126.942 50.8504C129.406 49.1666 131.603 46.4768 133.533 42.7808C131.603 39.0026 129.406 36.2922 126.942 34.6496C124.519 32.9658 121.85 32.124 118.934 32.124C116.552 32.124 114.52 32.5757 112.836 33.4792C111.152 34.3826 109.858 35.6352 108.955 37.2368C108.093 38.8384 107.661 40.6864 107.661 42.7808C107.661 44.8341 108.093 46.6616 108.955 48.2632C109.858 49.8648 111.152 51.1173 112.836 52.0208C114.52 52.9242 116.552 53.376 118.934 53.376Z" fill="#222222"/>
<path d="M73.8008 62.8624C69.571 62.8624 65.8544 62.1026 62.6512 60.5832C59.4891 59.0226 57.0046 56.8666 55.1976 54.1152C53.4318 51.3637 52.5488 48.181 52.5488 44.5672C52.5488 40.9122 53.4318 37.7296 55.1976 35.0192C57.0046 32.2677 59.4891 30.1322 62.6512 28.6128C65.8544 27.0522 69.571 26.272 73.8008 26.272C78.0307 26.272 81.7267 27.0522 84.8888 28.6128C88.092 30.1322 90.5766 32.2677 92.3424 35.0192C94.1494 37.7296 95.0528 40.9122 95.0528 44.5672C95.0528 48.181 94.1494 51.3637 92.3424 54.1152C90.5766 56.8666 88.092 59.0226 84.8888 60.5832C81.7267 62.1026 78.0307 62.8624 73.8008 62.8624ZM73.8008 56.5792C76.5112 56.5792 78.8315 56.0864 80.7616 55.1008C82.7328 54.1152 84.2523 52.7394 85.32 50.9736C86.3878 49.1666 86.9216 47.0312 86.9216 44.5672C86.9216 42.1032 86.3878 39.9882 85.32 38.2224C84.2523 36.4154 82.7328 35.0192 80.7616 34.0336C78.8315 33.048 76.5112 32.5552 73.8008 32.5552C71.1315 32.5552 68.8112 33.048 66.84 34.0336C64.8688 35.0192 63.3494 36.4154 62.2816 38.2224C61.2139 39.9882 60.68 42.1032 60.68 44.5672C60.68 47.0312 61.2139 49.1666 62.2816 50.9736C63.3494 52.7394 64.8688 54.1152 66.84 55.1008C68.8112 56.0864 71.1315 56.5792 73.8008 56.5792Z" fill="#E44040"/>
<mask id="mask0_60_1498" style="mask-type:alpha" maskUnits="userSpaceOnUse" x="52" y="26" width="44" height="37">
<path d="M73.8008 62.8624C69.571 62.8624 65.8544 62.1026 62.6512 60.5832C59.4891 59.0226 57.0046 56.8666 55.1976 54.1152C53.4318 51.3637 52.5488 48.181 52.5488 44.5672C52.5488 40.9122 53.4318 37.7296 55.1976 35.0192C57.0046 32.2677 59.4891 30.1322 62.6512 28.6128C65.8544 27.0522 69.571 26.272 73.8008 26.272C78.0307 26.272 81.7267 27.0522 84.8888 28.6128C88.092 30.1322 90.5766 32.2677 92.3424 35.0192C94.1494 37.7296 95.0528 40.9122 95.0528 44.5672C95.0528 48.181 94.1494 51.3637 92.3424 54.1152C90.5766 56.8666 88.092 59.0226 84.8888 60.5832C81.7267 62.1026 78.0307 62.8624 73.8008 62.8624ZM73.8008 56.5792C76.5112 56.5792 78.8315 56.0864 80.7616 55.1008C82.7328 54.1152 84.2523 52.7394 85.32 50.9736C86.3878 49.1666 86.9216 47.0312 86.9216 44.5672C86.9216 42.1032 86.3878 39.9882 85.32 38.2224C84.2523 36.4154 82.7328 35.0192 80.7616 34.0336C78.8315 33.048 76.5112 32.5552 73.8008 32.5552C71.1315 32.5552 68.8112 33.048 66.84 34.0336C64.8688 35.0192 63.3494 36.4154 62.2816 38.2224C61.2139 39.9882 60.68 42.1032 60.68 44.5672C60.68 47.0312 61.2139 49.1666 62.2816 50.9736C63.3494 52.7394 64.8688 54.1152 66.84 55.1008C68.8112 56.0864 71.1315 56.5792 73.8008 56.5792Z" fill="white"/>
</mask>
<g mask="url(#mask0_60_1498)">
<rect width="75" height="77" rx="37.5" fill="white"/>
</g>
<path d="M36.4552 16C39.9048 16 42.8821 16.616 45.3872 17.848C47.9333 19.08 49.884 20.8048 51.2392 23.0224C52.6355 25.1989 53.3336 27.7245 53.3336 30.5992C53.3336 33.4739 52.6355 36.02 51.2392 38.2376C49.884 40.4141 47.9333 42.1184 45.3872 43.3504C42.8821 44.5824 39.9048 45.1984 36.4552 45.1984H15.696V38.176H36.1472C38.9397 38.176 41.1163 37.4984 42.6768 36.1432C44.2784 34.788 45.0792 32.94 45.0792 30.5992C45.0792 28.2584 44.2784 26.4104 42.6768 25.0552C41.1163 23.7 38.9397 23.0224 36.1472 23.0224H16.4968L20.1312 18.9568V62.2H12V16H36.4552Z" fill="white"/>
</svg>
