<svg xmlns="http://www.w3.org/2000/svg" version="1.1" xmlns:xlink="http://www.w3.org/1999/xlink" width="1000" height="1000"><g clip-path="url(#SvgjsClipPath1452)"><rect width="1000" height="1000" fill="#ffffff"></rect><g transform="matrix(2.2004889975550124,0,0,2.2004889975550124,49.99999999999994,101.71149144254275)"><svg xmlns="http://www.w3.org/2000/svg" width="409" height="362" viewBox="0 0 409 362" fill="none"><path d="M219.796 30.6918H219.926L219.893 159.258L247.718 158.932H285.871C314.249 158.932 337.024 166.98 353.119 180.892C337.024 194.739 314.217 202.754 285.871 202.754H247.718L219.893 202.657V330.995H219.73V361.98H285.806C361.688 361.98 408.182 313.955 408.182 245.208C408.182 220.837 402.349 199.04 391.402 181.088C402.349 163.135 408.214 141.338 408.214 116.967C408.214 48.2532 361.753 0.162953 285.903 0.130371H219.828V30.6918H219.796ZM380.357 245.175C380.357 295.644 345.397 330.995 285.806 330.962H247.653V233.707H285.806C321.45 233.707 350.61 223.118 371.495 204.774C377.294 216.569 380.324 230.188 380.324 245.175H380.357ZM285.871 30.6918C345.462 30.6918 380.39 66.0752 380.39 116.935C380.39 131.89 377.327 145.509 371.43 157.271C350.545 138.927 321.417 128.338 285.838 128.338H247.685V30.6592H285.838L285.871 30.6918Z" fill="black"></path><path d="M188.419 30.594H188.288V159.16L160.464 158.835H122.311C93.9323 158.835 71.1254 166.85 55.0627 180.762C71.1579 194.609 93.9323 202.624 122.311 202.624H160.464L188.288 202.526V330.865H188.419V361.849H122.343C46.4612 361.849 0 313.792 0 245.045C0 220.674 5.86474 198.877 16.7795 180.925C5.83216 162.972 0 141.175 0 116.804C0 48.0902 46.4938 0 122.343 0H188.419V30.594ZM27.7921 245.045C27.7921 295.514 62.7519 330.865 122.311 330.865H160.464V233.609H122.311C86.6667 233.609 57.5063 222.987 36.6216 204.644C30.8221 216.438 27.7921 230.058 27.7921 245.045ZM122.343 30.594C62.7519 30.594 27.8246 65.9449 27.8246 116.804C27.8246 131.759 30.8873 145.378 36.752 157.14C57.6367 138.797 86.7644 128.241 122.343 128.241H160.496V30.594H122.343Z" fill="black"></path></svg></g></g><defs><clipPath id="SvgjsClipPath1452"><rect width="1000" height="1000" x="0" y="0" rx="0" ry="0"></rect></clipPath></defs></svg>